<?xml version="1.0" standalone="no"?>
<!DOCTYPE svg PUBLIC "-//W3C//DTD SVG 20010904//EN"
 "http://www.w3.org/TR/2001/REC-SVG-20010904/DTD/svg10.dtd">
<svg version="1.0" xmlns="http://www.w3.org/2000/svg"
 width="500.000000pt" height="500.000000pt" viewBox="0 0 500.000000 500.000000"
 preserveAspectRatio="xMidYMid meet">
<metadata>
Created by potrace 1.14, written by Peter Selinger 2001-2017
</metadata>
<g transform="translate(0.000000,500.000000) scale(0.100000,-0.100000)"
fill="#000000" stroke="none">
<path d="M0 2500 l0 -2500 2500 0 2500 0 0 2500 0 2500 -2500 0 -2500 0 0
-2500z m1810 1110 c0 -5 -11 -10 -25 -10 -43 0 -94 -27 -115 -62 -19 -32 -20
-49 -20 -656 0 -563 2 -627 17 -652 19 -34 80 -70 117 -70 14 0 26 -4 26 -10
0 -6 -83 -10 -230 -10 -214 0 -284 9 -191 24 51 8 98 48 111 94 8 25 10 235 8
647 -3 592 -4 611 -23 637 -23 32 -72 58 -109 58 -14 0 -26 5 -26 10 0 6 83
10 230 10 147 0 230 -4 230 -10z m780 0 c0 -5 -15 -10 -32 -10 -49 0 -100 -17
-146 -48 -22 -15 -155 -160 -295 -322 l-255 -294 56 -63 c31 -34 99 -107 151
-163 l93 -100 -99 0 -99 0 -122 131 c-67 72 -122 133 -122 137 0 4 115 151
255 326 143 179 255 328 255 339 0 30 -29 57 -62 57 -15 0 -28 5 -28 10 0 6
82 10 225 10 143 0 225 -4 225 -10z m587 -859 c98 -24 229 -74 261 -99 20 -15
26 -37 42 -147 11 -72 20 -138 20 -147 0 -32 -17 -19 -31 24 -95 288 -520 425
-836 268 -74 -37 -88 -40 -160 -40 l-78 0 25 20 c69 54 201 110 320 135 94 21
330 13 437 -14z m-1317 -218 c0 -13 5 -12 25 7 14 13 25 19 25 13 0 -6 -7 -16
-15 -23 -20 -17 -19 -26 7 -50 14 -13 17 -20 8 -20 -7 0 -22 7 -32 17 -17 15
-18 15 -18 0 0 -10 -4 -17 -10 -17 -5 0 -10 23 -10 51 0 31 4 48 10 44 6 -3
10 -13 10 -22z m233 -30 c10 -24 12 -43 7 -43 -6 0 -10 5 -10 10 0 15 -48 12
-53 -2 -2 -7 -8 -10 -11 -6 -4 3 2 28 13 54 23 52 30 51 54 -13z m147 1 c0
-24 -4 -44 -10 -44 -5 0 -10 23 -10 51 0 31 4 48 10 44 6 -3 10 -26 10 -51z
m314 50 c26 -10 18 -23 -11 -21 -24 2 -29 -2 -31 -25 -3 -25 0 -28 28 -28 18
0 29 -4 25 -10 -9 -14 -48 -13 -63 2 -17 17 -15 48 5 70 18 20 23 21 47 12z
m167 -34 c10 0 19 6 19 14 0 8 5 18 10 21 6 4 10 -13 10 -44 0 -28 -4 -51 -10
-51 -5 0 -10 9 -10 20 0 13 -7 20 -20 20 -13 0 -20 -7 -20 -20 0 -11 -4 -20
-10 -20 -5 0 -10 20 -10 43 0 46 13 73 18 38 2 -13 11 -21 23 -21z m204 -35
c16 0 21 9 26 40 4 31 7 36 13 22 5 -10 4 -32 -1 -50 -17 -60 -83 -42 -83 23
0 43 15 45 20 3 4 -30 9 -38 25 -38z m-405 -255 c251 -265 438 -378 673 -405
120 -14 41 -40 -118 -39 -227 1 -436 112 -668 354 -58 60 -108 107 -110 103
-15 -25 -29 -141 -28 -237 1 -207 65 -371 201 -506 135 -135 281 -191 495
-191 217 0 361 56 500 196 127 126 189 268 202 463 4 67 10 92 20 92 26 0 9
-211 -28 -335 -70 -236 -249 -406 -486 -462 -59 -14 -115 -18 -233 -17 -188 1
-264 18 -420 95 -91 46 -117 64 -195 143 -153 154 -216 307 -216 526 0 122 19
220 62 319 l21 51 93 0 92 0 143 -150z"/>
<path d="M2056 2515 c-3 -8 -1 -15 4 -15 6 0 10 7 10 15 0 8 -2 15 -4 15 -2 0
-6 -7 -10 -15z"/>
</g>
</svg>
